<svg xmlns="http://www.w3.org/2000/svg"><defs><style>.cls-1{fill:#fff;fill-rule:evenodd}</style><style>.cls-1{fill:#fff;fill-rule:evenodd}</style></defs><symbol id="logo" viewBox="0 0 41 41"><path class="cls-1" d="M20.5 0A20.5 20.5 0 1 0 41 20.5 20.524 20.524 0 0 0 20.5 0zm0 37.835A17.334 17.334 0 1 1 37.834 20.5 17.353 17.353 0 0 1 20.5 37.834zm0-25.223a7.889 7.889 0 1 0 7.889 7.889 7.9 7.9 0 0 0-7.889-7.89zm0 12.611a4.722 4.722 0 1 1 4.722-4.722 4.728 4.728 0 0 1-4.722 4.721z"/></symbol><symbol id="ok" viewBox="0 0 24 18"><path class="cls-1" d="M23.22 0L6.52 16.46.78 10.8l-.78.77L6.52 18 24 .77z"/></symbol></svg>